<mxfile host="app.diagrams.net" modified="2023-06-07T10:25:56.637Z" agent="Mozilla/5.0 (Windows NT 10.0; Win64; x64) AppleWebKit/537.36 (KHTML, like Gecko) Chrome/114.0.0.0 Safari/537.36" etag="Ah7wbc3sSAmc_j1mcumz" version="21.3.6" type="github">
  <diagram id="C5RBs43oDa-KdzZeNtuy" name="Page-1">
    <mxGraphModel dx="794" dy="1682" grid="1" gridSize="10" guides="1" tooltips="1" connect="1" arrows="1" fold="1" page="1" pageScale="1" pageWidth="827" pageHeight="1169" math="0" shadow="0">
      <root>
        <mxCell id="WIyWlLk6GJQsqaUBKTNV-0" />
        <mxCell id="WIyWlLk6GJQsqaUBKTNV-1" parent="WIyWlLk6GJQsqaUBKTNV-0" />
        <mxCell id="EkJEPmtSvJtYmXwET2wr-13" value="" style="edgeStyle=orthogonalEdgeStyle;rounded=0;orthogonalLoop=1;jettySize=auto;html=1;" edge="1" parent="WIyWlLk6GJQsqaUBKTNV-1" source="EkJEPmtSvJtYmXwET2wr-0" target="EkJEPmtSvJtYmXwET2wr-12">
          <mxGeometry relative="1" as="geometry" />
        </mxCell>
        <mxCell id="EkJEPmtSvJtYmXwET2wr-0" value="START" style="ellipse;whiteSpace=wrap;html=1;" vertex="1" parent="WIyWlLk6GJQsqaUBKTNV-1">
          <mxGeometry x="354" y="-20" width="120" height="80" as="geometry" />
        </mxCell>
        <mxCell id="EkJEPmtSvJtYmXwET2wr-6" value="" style="edgeStyle=orthogonalEdgeStyle;rounded=0;orthogonalLoop=1;jettySize=auto;html=1;" edge="1" parent="WIyWlLk6GJQsqaUBKTNV-1" source="EkJEPmtSvJtYmXwET2wr-1" target="EkJEPmtSvJtYmXwET2wr-5">
          <mxGeometry relative="1" as="geometry" />
        </mxCell>
        <mxCell id="EkJEPmtSvJtYmXwET2wr-1" value="Input firstNumber ,&lt;br&gt;Input secondNumber" style="shape=parallelogram;perimeter=parallelogramPerimeter;whiteSpace=wrap;html=1;fixedSize=1;" vertex="1" parent="WIyWlLk6GJQsqaUBKTNV-1">
          <mxGeometry x="341" y="280" width="146" height="70" as="geometry" />
        </mxCell>
        <mxCell id="EkJEPmtSvJtYmXwET2wr-8" value="" style="edgeStyle=orthogonalEdgeStyle;rounded=0;orthogonalLoop=1;jettySize=auto;html=1;" edge="1" parent="WIyWlLk6GJQsqaUBKTNV-1" source="EkJEPmtSvJtYmXwET2wr-5" target="EkJEPmtSvJtYmXwET2wr-7">
          <mxGeometry relative="1" as="geometry" />
        </mxCell>
        <mxCell id="EkJEPmtSvJtYmXwET2wr-5" value="Select Arithmetic Operation ( + , -, /, * )" style="shape=parallelogram;perimeter=parallelogramPerimeter;whiteSpace=wrap;html=1;fixedSize=1;" vertex="1" parent="WIyWlLk6GJQsqaUBKTNV-1">
          <mxGeometry x="341" y="430" width="146" height="70" as="geometry" />
        </mxCell>
        <mxCell id="EkJEPmtSvJtYmXwET2wr-10" value="" style="edgeStyle=orthogonalEdgeStyle;rounded=0;orthogonalLoop=1;jettySize=auto;html=1;" edge="1" parent="WIyWlLk6GJQsqaUBKTNV-1" source="EkJEPmtSvJtYmXwET2wr-7" target="EkJEPmtSvJtYmXwET2wr-9">
          <mxGeometry relative="1" as="geometry" />
        </mxCell>
        <mxCell id="EkJEPmtSvJtYmXwET2wr-17" value="" style="edgeStyle=orthogonalEdgeStyle;rounded=0;orthogonalLoop=1;jettySize=auto;html=1;" edge="1" parent="WIyWlLk6GJQsqaUBKTNV-1" source="EkJEPmtSvJtYmXwET2wr-7" target="EkJEPmtSvJtYmXwET2wr-16">
          <mxGeometry relative="1" as="geometry" />
        </mxCell>
        <mxCell id="EkJEPmtSvJtYmXwET2wr-7" value="Operation == +&amp;nbsp;" style="rhombus;whiteSpace=wrap;html=1;" vertex="1" parent="WIyWlLk6GJQsqaUBKTNV-1">
          <mxGeometry x="351" y="575" width="126" height="125" as="geometry" />
        </mxCell>
        <mxCell id="EkJEPmtSvJtYmXwET2wr-9" value="result = firstNumber + secondNumber" style="whiteSpace=wrap;html=1;" vertex="1" parent="WIyWlLk6GJQsqaUBKTNV-1">
          <mxGeometry x="560" y="607.5" width="120" height="60" as="geometry" />
        </mxCell>
        <mxCell id="EkJEPmtSvJtYmXwET2wr-14" value="" style="edgeStyle=orthogonalEdgeStyle;rounded=0;orthogonalLoop=1;jettySize=auto;html=1;" edge="1" parent="WIyWlLk6GJQsqaUBKTNV-1" source="EkJEPmtSvJtYmXwET2wr-12" target="EkJEPmtSvJtYmXwET2wr-1">
          <mxGeometry relative="1" as="geometry" />
        </mxCell>
        <mxCell id="EkJEPmtSvJtYmXwET2wr-12" value="int result, firstNumber, secondNumber" style="whiteSpace=wrap;html=1;" vertex="1" parent="WIyWlLk6GJQsqaUBKTNV-1">
          <mxGeometry x="354" y="150" width="120" height="60" as="geometry" />
        </mxCell>
        <mxCell id="EkJEPmtSvJtYmXwET2wr-15" value="TRUE" style="text;html=1;strokeColor=none;fillColor=none;align=center;verticalAlign=middle;whiteSpace=wrap;rounded=0;" vertex="1" parent="WIyWlLk6GJQsqaUBKTNV-1">
          <mxGeometry x="487" y="608" width="60" height="30" as="geometry" />
        </mxCell>
        <mxCell id="EkJEPmtSvJtYmXwET2wr-19" value="" style="edgeStyle=orthogonalEdgeStyle;rounded=0;orthogonalLoop=1;jettySize=auto;html=1;" edge="1" parent="WIyWlLk6GJQsqaUBKTNV-1" source="EkJEPmtSvJtYmXwET2wr-16" target="EkJEPmtSvJtYmXwET2wr-18">
          <mxGeometry relative="1" as="geometry" />
        </mxCell>
        <mxCell id="EkJEPmtSvJtYmXwET2wr-24" value="" style="edgeStyle=orthogonalEdgeStyle;rounded=0;orthogonalLoop=1;jettySize=auto;html=1;" edge="1" parent="WIyWlLk6GJQsqaUBKTNV-1" source="EkJEPmtSvJtYmXwET2wr-16" target="EkJEPmtSvJtYmXwET2wr-23">
          <mxGeometry relative="1" as="geometry" />
        </mxCell>
        <mxCell id="EkJEPmtSvJtYmXwET2wr-16" value="Operation == -" style="rhombus;whiteSpace=wrap;html=1;" vertex="1" parent="WIyWlLk6GJQsqaUBKTNV-1">
          <mxGeometry x="351" y="780" width="126" height="125" as="geometry" />
        </mxCell>
        <mxCell id="EkJEPmtSvJtYmXwET2wr-18" value="result = firstNumber - secondNumber" style="whiteSpace=wrap;html=1;" vertex="1" parent="WIyWlLk6GJQsqaUBKTNV-1">
          <mxGeometry x="560" y="812.5" width="120" height="60" as="geometry" />
        </mxCell>
        <mxCell id="EkJEPmtSvJtYmXwET2wr-20" value="TRUE" style="text;html=1;strokeColor=none;fillColor=none;align=center;verticalAlign=middle;whiteSpace=wrap;rounded=0;" vertex="1" parent="WIyWlLk6GJQsqaUBKTNV-1">
          <mxGeometry x="477" y="813" width="60" height="30" as="geometry" />
        </mxCell>
        <mxCell id="EkJEPmtSvJtYmXwET2wr-26" value="" style="edgeStyle=orthogonalEdgeStyle;rounded=0;orthogonalLoop=1;jettySize=auto;html=1;" edge="1" parent="WIyWlLk6GJQsqaUBKTNV-1" source="EkJEPmtSvJtYmXwET2wr-23" target="EkJEPmtSvJtYmXwET2wr-25">
          <mxGeometry relative="1" as="geometry" />
        </mxCell>
        <mxCell id="EkJEPmtSvJtYmXwET2wr-28" value="" style="edgeStyle=orthogonalEdgeStyle;rounded=0;orthogonalLoop=1;jettySize=auto;html=1;" edge="1" parent="WIyWlLk6GJQsqaUBKTNV-1" source="EkJEPmtSvJtYmXwET2wr-23" target="EkJEPmtSvJtYmXwET2wr-27">
          <mxGeometry relative="1" as="geometry" />
        </mxCell>
        <mxCell id="EkJEPmtSvJtYmXwET2wr-23" value="Operation == *" style="rhombus;whiteSpace=wrap;html=1;" vertex="1" parent="WIyWlLk6GJQsqaUBKTNV-1">
          <mxGeometry x="351" y="985" width="126" height="125" as="geometry" />
        </mxCell>
        <mxCell id="EkJEPmtSvJtYmXwET2wr-25" value="result = firstNumber * secondNumber" style="rounded=1;whiteSpace=wrap;html=1;" vertex="1" parent="WIyWlLk6GJQsqaUBKTNV-1">
          <mxGeometry x="560" y="1017.5" width="120" height="60" as="geometry" />
        </mxCell>
        <mxCell id="EkJEPmtSvJtYmXwET2wr-30" value="" style="edgeStyle=orthogonalEdgeStyle;rounded=0;orthogonalLoop=1;jettySize=auto;html=1;" edge="1" parent="WIyWlLk6GJQsqaUBKTNV-1" source="EkJEPmtSvJtYmXwET2wr-27" target="EkJEPmtSvJtYmXwET2wr-29">
          <mxGeometry relative="1" as="geometry" />
        </mxCell>
        <mxCell id="EkJEPmtSvJtYmXwET2wr-35" style="edgeStyle=orthogonalEdgeStyle;rounded=0;orthogonalLoop=1;jettySize=auto;html=1;" edge="1" parent="WIyWlLk6GJQsqaUBKTNV-1" source="EkJEPmtSvJtYmXwET2wr-27">
          <mxGeometry relative="1" as="geometry">
            <mxPoint x="414" y="1400" as="targetPoint" />
          </mxGeometry>
        </mxCell>
        <mxCell id="EkJEPmtSvJtYmXwET2wr-27" value="Operation == /" style="rhombus;whiteSpace=wrap;html=1;" vertex="1" parent="WIyWlLk6GJQsqaUBKTNV-1">
          <mxGeometry x="351" y="1190" width="126" height="125" as="geometry" />
        </mxCell>
        <mxCell id="EkJEPmtSvJtYmXwET2wr-29" value="result = firstNumber / secondNumber" style="whiteSpace=wrap;html=1;" vertex="1" parent="WIyWlLk6GJQsqaUBKTNV-1">
          <mxGeometry x="560" y="1222.5" width="120" height="60" as="geometry" />
        </mxCell>
        <mxCell id="EkJEPmtSvJtYmXwET2wr-36" value="" style="endArrow=classic;html=1;rounded=0;" edge="1" parent="WIyWlLk6GJQsqaUBKTNV-1">
          <mxGeometry width="50" height="50" relative="1" as="geometry">
            <mxPoint x="420" y="1400" as="sourcePoint" />
            <mxPoint x="160" y="1400" as="targetPoint" />
          </mxGeometry>
        </mxCell>
        <mxCell id="EkJEPmtSvJtYmXwET2wr-37" value="" style="endArrow=classic;html=1;rounded=0;" edge="1" parent="WIyWlLk6GJQsqaUBKTNV-1">
          <mxGeometry width="50" height="50" relative="1" as="geometry">
            <mxPoint x="160" y="1400" as="sourcePoint" />
            <mxPoint x="160" y="398.666748046875" as="targetPoint" />
          </mxGeometry>
        </mxCell>
        <mxCell id="EkJEPmtSvJtYmXwET2wr-38" value="" style="endArrow=classic;html=1;rounded=0;" edge="1" parent="WIyWlLk6GJQsqaUBKTNV-1">
          <mxGeometry width="50" height="50" relative="1" as="geometry">
            <mxPoint x="160" y="400" as="sourcePoint" />
            <mxPoint x="410" y="400" as="targetPoint" />
          </mxGeometry>
        </mxCell>
        <mxCell id="EkJEPmtSvJtYmXwET2wr-39" value="" style="endArrow=classic;html=1;rounded=0;" edge="1" parent="WIyWlLk6GJQsqaUBKTNV-1">
          <mxGeometry width="50" height="50" relative="1" as="geometry">
            <mxPoint x="760" y="600" as="sourcePoint" />
            <mxPoint x="760" y="1444" as="targetPoint" />
          </mxGeometry>
        </mxCell>
        <mxCell id="EkJEPmtSvJtYmXwET2wr-40" value="" style="endArrow=classic;html=1;rounded=0;exitX=1;exitY=0.5;exitDx=0;exitDy=0;" edge="1" parent="WIyWlLk6GJQsqaUBKTNV-1" source="EkJEPmtSvJtYmXwET2wr-9">
          <mxGeometry width="50" height="50" relative="1" as="geometry">
            <mxPoint x="690" y="662.5" as="sourcePoint" />
            <mxPoint x="760" y="640" as="targetPoint" />
          </mxGeometry>
        </mxCell>
        <mxCell id="EkJEPmtSvJtYmXwET2wr-41" value="" style="endArrow=classic;html=1;rounded=0;" edge="1" parent="WIyWlLk6GJQsqaUBKTNV-1">
          <mxGeometry width="50" height="50" relative="1" as="geometry">
            <mxPoint x="680" y="840" as="sourcePoint" />
            <mxPoint x="760" y="840" as="targetPoint" />
          </mxGeometry>
        </mxCell>
        <mxCell id="EkJEPmtSvJtYmXwET2wr-42" value="" style="endArrow=classic;html=1;rounded=0;exitX=1.011;exitY=0.386;exitDx=0;exitDy=0;exitPerimeter=0;" edge="1" parent="WIyWlLk6GJQsqaUBKTNV-1" source="EkJEPmtSvJtYmXwET2wr-25">
          <mxGeometry width="50" height="50" relative="1" as="geometry">
            <mxPoint x="690" y="1067.5" as="sourcePoint" />
            <mxPoint x="760" y="1040" as="targetPoint" />
          </mxGeometry>
        </mxCell>
        <mxCell id="EkJEPmtSvJtYmXwET2wr-43" value="" style="endArrow=classic;html=1;rounded=0;exitX=1;exitY=0.25;exitDx=0;exitDy=0;" edge="1" parent="WIyWlLk6GJQsqaUBKTNV-1" source="EkJEPmtSvJtYmXwET2wr-29">
          <mxGeometry width="50" height="50" relative="1" as="geometry">
            <mxPoint x="690" y="1260" as="sourcePoint" />
            <mxPoint x="760" y="1240" as="targetPoint" />
          </mxGeometry>
        </mxCell>
        <mxCell id="EkJEPmtSvJtYmXwET2wr-47" value="" style="edgeStyle=orthogonalEdgeStyle;rounded=0;orthogonalLoop=1;jettySize=auto;html=1;" edge="1" parent="WIyWlLk6GJQsqaUBKTNV-1" source="EkJEPmtSvJtYmXwET2wr-45" target="EkJEPmtSvJtYmXwET2wr-46">
          <mxGeometry relative="1" as="geometry" />
        </mxCell>
        <mxCell id="EkJEPmtSvJtYmXwET2wr-45" value="result" style="shape=parallelogram;perimeter=parallelogramPerimeter;whiteSpace=wrap;html=1;fixedSize=1;" vertex="1" parent="WIyWlLk6GJQsqaUBKTNV-1">
          <mxGeometry x="700" y="1440" width="120" height="60" as="geometry" />
        </mxCell>
        <mxCell id="EkJEPmtSvJtYmXwET2wr-46" value="STOP" style="ellipse;whiteSpace=wrap;html=1;" vertex="1" parent="WIyWlLk6GJQsqaUBKTNV-1">
          <mxGeometry x="720" y="1570" width="80" height="60" as="geometry" />
        </mxCell>
      </root>
    </mxGraphModel>
  </diagram>
</mxfile>
